# xmcd CD database file
#
# Track frame offsets:
#	150
#	18820
#	34732
#	53336
#	73920
#	92737
#	111267
#	135093
#	152152
#	176732
#	201320
#	215644
#
# Disc length: 3165 seconds
#
# Revision: 0
# Processed by: cddbd v1.5.2PL0 Copyright (c) Steve Scherf et al.
# Submitted via: CDex 1.70beta2
#
DISCID=a10c5b0c
DTITLE=Inger Marie Gundersen - my heart would have a reason
DYEAR=1900
DGENRE=Jazz
TTITLE0=I can see clearly now
TTITLE1=Some thing never change
TTITLE2=That's all
TTITLE3=Something
TTITLE4=The road from yesterday
TTITLE5=Last first kiss
TTITLE6=The first time ever I saw your face
TTITLE7=I only want to be with you
TTITLE8=Turn your lights down low
TTITLE9=Why should I cry for you
TTITLE10=Even when
TTITLE11=Have I yold you lately
EXTD=
EXTT0=
EXTT1=
EXTT2=
EXTT3=
EXTT4=
EXTT5=
EXTT6=
EXTT7=
EXTT8=
EXTT9=
EXTT10=
EXTT11=
PLAYORDER=
